{"title":"Dinosaur Train","uid":6216716,"size":13140187314,"categoryP":"video","categoryS":"tv_shows","magnet":"?xt=urn:btih:cb90377c1687d38160da89110bfd74f131947cbc&amp;dn=Dinosaur+Train&amp;tr=udp%3A%2F%2Ftracker.openbittorrent.com%3A80&amp;tr=udp%3A%2F%2Fopen.demonii.com%3A1337&amp;tr=udp%3A%2F%2Ftracker.coppersurfer.tk%3A6969&amp;tr=udp%3A%2F%2Fexodus.desync.com%3A6969","seeders":28,"leechers":6,"uploader":"burnrome","files":-1,"time":1299184924,"description":"Here's all the episodes of Dinosaur Train, from PBS Kids. The exceptions are  Episode 40 (from wikipedia) which hasn't aired yet AFAIK.\nThese are my caps from WNED-HD TV in Buffalo, NY, trimmed in VideoRedo, and converted from a 1920x1080 MPG to a 720x480 Xvid AVI file using WinFF and ffmpeg.\nFor all the Dinosaur obsessed kids out there!\n\n &lt;a href=&quot;\nhttp://en.wikipedia.org/wiki/Dinosaur_Train&quot; rel=&quot;nofollow&quot; target=&quot;_NEW&quot;&gt;\nhttp://en.wikipedia.org/wiki/Dinosaur_Train&lt;/a&gt;\n\nA representative Mediainfo is here :\nFormat : AVI\nFormat/Info : Audio Video Interleave\nFile size : 342 MiB\nDuration : 25mn 6s\nOverall bit rate : 1 904 Kbps\nWriting application : Lavf52.32.0\n\nVideo\nID : 0\nFormat : MPEG-4 Visual\nFormat profile : Advanced Simple@L5\nFormat settings, BVOP : Yes\nFormat settings, QPel : No\nFormat settings, GMC : No warppoints\nFormat settings, Matrix : Default (H.263)\nMuxing mode : Packed bitstream\nCodec ID : XVID\nCodec ID/Hint : XviD\nDuration : 25mn 6s\nBit rate : 1 698 Kbps\nWidth : 720 pixels\nHeight : 480 pixels\nDisplay aspect ratio : 16:9\nFrame rate : 29.970 fps\nStandard : NTSC\nResolution : 8 bits\nColorimetry : 4:2:0\nScan type : Progressive\nBits/(Pixel*Frame) : 0.164\nStream size : 305 MiB (89%)\nWriting library : XviD 1.2.1 (UTC 2008-12-04)\n\nAudio\nID : 1\nFormat : MPEG Audio\nFormat version : Version 1\nFormat profile : Layer 3\nMode : Joint stereo\nFormat_Settings_ModeExtension : MS Stereo\nCodec ID : 55\nCodec ID/Hint : MP3\nDuration : 25mn 6s\nBit rate mode : Constant\nBit rate : 192 Kbps\nChannel(s) : 2 channels\nSampling rate : 48.0 KHz\nStream size : 34.5 MiB (10%)\nAlignment : Aligned on interleaves\nInterleave, duration : 24 ms (0.72 video frame)","torrent":{"xt":"urn:btih:cb90377c1687d38160da89110bfd74f131947cbc","amp;dn":"Dinosaur+Train","amp;tr":["udp%3A%2F%2Ftracker.openbittorrent.com%3A80","udp%3A%2F%2Fopen.demonii.com%3A1337","udp%3A%2F%2Ftracker.coppersurfer.tk%3A6969","udp%3A%2F%2Fexodus.desync.com%3A6969"],"infoHash":"cb90377c1687d38160da89110bfd74f131947cbc","infoHashBuffer":{"type":"Buffer","data":[203,144,55,124,22,135,211,129,96,218,137,17,11,253,116,241,49,148,124,188]},"announce":[],"urlList":[]}}